<?xml version="1.0" encoding="UTF-8" standalone="no"?>
<svg
   xmlns:dc="http://purl.org/dc/elements/1.1/"
   xmlns:cc="http://creativecommons.org/ns#"
   xmlns:rdf="http://www.w3.org/1999/02/22-rdf-syntax-ns#"
   xmlns:svg="http://www.w3.org/2000/svg"
   xmlns="http://www.w3.org/2000/svg"
   xmlns:sodipodi="http://sodipodi.sourceforge.net/DTD/sodipodi-0.dtd"
   xmlns:inkscape="http://www.inkscape.org/namespaces/inkscape"
   width="117.01432mm"
   height="99.019089mm"
   viewBox="0 0 117.01432 99.019089"
   version="1.1"
   id="svg8"
   inkscape:version="1.0 (1.0+r73+1)"
   sodipodi:docname="bored1.svg">
  <defs
     id="defs2" />
  <sodipodi:namedview
     fit-margin-bottom="0"
     fit-margin-right="0"
     fit-margin-left="0"
     fit-margin-top="0"
     id="base"
     pagecolor="#ffffff"
     bordercolor="#666666"
     borderopacity="1.0"
     inkscape:pageopacity="0.0"
     inkscape:pageshadow="2"
     inkscape:zoom="0.35"
     inkscape:cx="-578.36056"
     inkscape:cy="80.394517"
     inkscape:document-units="mm"
     inkscape:current-layer="layer1"
     inkscape:document-rotation="0"
     showgrid="false"
     inkscape:window-width="1920"
     inkscape:window-height="1031"
     inkscape:window-x="0"
     inkscape:window-y="25"
     inkscape:window-maximized="1" />
  <metadata
     id="metadata5">
    <rdf:RDF>
      <cc:Work
         rdf:about="">
        <dc:format>image/svg+xml</dc:format>
        <dc:type
           rdf:resource="http://purl.org/dc/dcmitype/StillImage" />
        <dc:title></dc:title>
      </cc:Work>
    </rdf:RDF>
  </metadata>
  <g
     transform="translate(-48.727509,-90.012934)"
     inkscape:label="Layer 1"
     inkscape:groupmode="layer"
     id="layer1">
    <path
       style="fill:#000000;fill-opacity:1;stroke:none;stroke-width:0.912699;stroke-miterlimit:4;stroke-dasharray:none;stroke-opacity:1"
       id="path857"
       d="m 74.36658,99.731132 c -2.912741,1.771708 -5.506987,3.986778 -7.94211,6.358238 -2.361172,2.04527 -4.208305,4.5737 -6.232844,6.92979 -2.431098,2.82517 -4.449339,5.90016 -5.984712,9.29162 -1.283536,2.97 -2.187725,6.08626 -3.003054,9.21182 -0.733048,2.81464 -1.267088,5.65655 -1.561765,8.54935 -0.396599,2.74084 -0.655473,5.49719 -0.813313,8.26127 -0.315143,3.24863 0.134262,6.43109 0.945524,9.56899 1.008482,3.59282 2.798398,6.80573 4.991251,9.79408 3.025433,3.4948 6.827178,6.17366 10.690851,8.65598 4.444385,3.02865 9.421871,4.98945 14.429056,6.86183 5.833703,2.01015 11.843893,3.42443 17.899974,4.5679 5.851332,1.01262 11.803602,1.12945 17.725892,1.23551 4.71768,0.0577 9.51495,-0.0123 14.14369,-1.04893 0.97569,-0.21832 1.93106,-0.51933 2.89659,-0.77899 4.52672,-1.54 8.99053,-3.60243 12.82996,-6.49394 0.71221,-0.53637 1.37509,-1.13536 2.06263,-1.70305 4.46351,-4.10195 7.61526,-9.34316 10.47834,-14.6255 2.90096,-5.78313 5.02051,-11.91543 6.60679,-18.17688 0.90121,-4.25685 1.49597,-8.65326 1.07398,-13.01035 -0.0927,-0.95826 -0.26893,-1.90663 -0.40341,-2.85992 -1.03403,-5.93909 -3.60686,-11.35998 -6.5448,-16.56124 -2.4583,-4.40351 -5.86328,-8.04216 -9.65451,-11.31089 -3.43798,-2.842656 -7.33787,-4.990574 -11.38796,-6.814842 -3.5428,-1.443539 -7.17543,-2.686499 -10.85972,-3.71844 -3.30841,-0.739389 -6.68143,-1.175856 -10.04874,-1.551375 -2.62108,-0.29156 -5.26072,-0.309917 -7.89462,-0.33131 -2.92902,-0.04187 -5.84959,-0.03188 -8.76936,0.215624 -2.907346,0.143422 -5.661206,1.102072 -8.39857,2.008464 -2.325047,0.769976 -4.665565,1.498732 -6.965072,2.3427 -1.958165,0.75063 -3.850894,1.649936 -5.757191,2.519135 -1.245515,0.737212 -2.566224,1.324921 -3.840563,2.006649 -0.745399,0.402426 -1.39032,0.951245 -2.028435,1.500985 -5.542312,4.77886 1.216043,12.61688 6.758351,7.83801 v 0 c 0.958287,-0.8272 -0.184596,0.13208 0.255767,-0.26968 1.016528,-0.61617 2.183744,-0.97563 3.161379,-1.66512 1.67223,-0.76741 3.333805,-1.55678 5.049142,-2.22632 2.179976,-0.82083 4.42136,-1.47478 6.626519,-2.2238 1.968231,-0.65494 3.933067,-1.42106 6.026943,-1.51983 2.59584,-0.22807 5.19321,-0.20441 7.7979,-0.17779 2.28005,0.0183 4.56589,0.0223 6.83552,0.2684 2.81927,0.3116 5.63864,0.6842 8.42104,1.23704 3.19313,0.87747 6.33015,1.97903 9.408,3.19579 3.15361,1.39406 6.18562,3.04975 8.87712,5.22586 2.90277,2.46489 5.50918,5.19711 7.38142,8.55054 2.32278,4.08962 4.43872,8.32048 5.31433,12.98836 0.63814,3.95203 0.45172,7.91322 -0.47123,11.81878 -1.35646,5.4395 -3.20683,10.75963 -5.68331,15.79654 -2.21164,4.1451 -4.6467,8.28741 -8.01984,11.60424 -3.21013,2.76598 -6.99617,4.78626 -11.0044,6.15039 -4.57648,1.32777 -9.33879,1.61246 -14.08978,1.4529 -5.34237,-0.0942 -10.71405,-0.17542 -15.996806,-1.05883 -5.476177,-1.02553 -10.908744,-2.30239 -16.191063,-4.09174 -4.324477,-1.61392 -8.643717,-3.24318 -12.470418,-5.88283 -2.825574,-1.80166 -5.590591,-3.72901 -7.963823,-6.11212 -1.459037,-1.9261 -2.630088,-3.99844 -3.311323,-6.33491 -0.612143,-2.05048 -0.800328,-4.13869 -0.600059,-6.27325 0.1455,-2.61724 0.410315,-5.22399 0.778903,-7.81959 0.227687,-2.36451 0.687306,-4.67728 1.281617,-6.97745 0.664626,-2.58558 1.407485,-5.16469 2.451185,-7.62559 1.057195,-2.50269 2.650744,-4.6622 4.381303,-6.74515 1.817487,-2.13077 3.477275,-4.41487 5.604856,-6.25874 1.812132,-1.78072 3.737005,-3.44817 5.894779,-4.80317 6.332318,-3.66833 1.144516,-12.62357 -5.187801,-8.955245 z"
       inkscape:export-xdpi="96"
       inkscape:export-ydpi="96" />
    <ellipse
       style="fill:none;fill-opacity:1;stroke:#000000;stroke-width:2.77084;stroke-miterlimit:4;stroke-dasharray:none;stroke-opacity:1"
       id="path867"
       cx="126.37141"
       cy="131.75441"
       rx="7.9189701"
       ry="7.9396029"
       inkscape:export-xdpi="96"
       inkscape:export-ydpi="96" />
    <ellipse
       ry="7.9396029"
       rx="7.9189701"
       cy="126.98907"
       cx="89.48082"
       id="ellipse869"
       style="fill:none;fill-opacity:1;stroke:#000000;stroke-width:2.77084;stroke-miterlimit:4;stroke-dasharray:none;stroke-opacity:1"
       inkscape:export-xdpi="96"
       inkscape:export-ydpi="96" />
    <path
       style="fill:#000000;fill-opacity:1;stroke:none;stroke-width:3.10449;stroke-miterlimit:4;stroke-dasharray:none;stroke-opacity:1"
       id="path897"
       d="m 91.677031,154.30325 c 0.287009,0.11459 0.530475,0.21976 0.835761,0.2966 1.682996,0.42365 3.419252,0.53625 5.13331,0.6827 2.885738,0.18991 5.774768,0.3017 8.661578,0.46963 1.51945,0.10106 3.03716,0.23943 4.5482,0.4465 0.86285,0.11955 1.72197,0.27483 2.57659,0.45401 0.38383,0.10343 0.77064,0.19131 1.15768,0.27779 1.59978,0.35677 2.04896,-2.18456 0.44918,-2.54134 v 0 c -0.39618,-0.0881 -0.7916,-0.18041 -1.18494,-0.28369 -0.90243,-0.18806 -1.80919,-0.35321 -2.72026,-0.4788 -1.56402,-0.21273 -3.13446,-0.35888 -4.70715,-0.46194 -2.8684,-0.16688 -5.739,-0.27876 -8.606427,-0.46568 -1.557293,-0.13234 -3.138573,-0.2274 -4.6716,-0.58962 -0.232767,-0.055 -0.41616,-0.13418 -0.634989,-0.22054 -1.519849,-0.66475 -2.35678,1.74961 -0.836933,2.41438 z"
       inkscape:export-xdpi="96"
       inkscape:export-ydpi="96" />
    <ellipse
       ry="4.8120961"
       rx="4.8478365"
       cy="130.57413"
       cx="91.651291"
       id="path855"
       style="fill:#000000;stroke-width:3.84579"
       inkscape:export-xdpi="96"
       inkscape:export-ydpi="96" />
    <ellipse
       style="fill:#000000;stroke-width:3.84579"
       id="ellipse857"
       cx="123.28335"
       cy="133.9617"
       rx="4.8478365"
       ry="4.8120961"
       inkscape:export-xdpi="96"
       inkscape:export-ydpi="96" />
  </g>
</svg>
